<svg xmlns="http://www.w3.org/2000/svg" viewBox="0 0 70 70"><defs><style>.a{fill:#f4d475;}</style></defs><title>Path 528</title><path class="a" d="M68.83,63H67.67V21a7,7,0,0,0-5.84-6.9V1.17A1.16,1.16,0,0,0,60.67,0h-7A1.17,1.17,0,0,0,52.5,1.17V14.1A7,7,0,0,0,46.67,21V34a10.77,10.77,0,0,0-2.34-.19V21a7,7,0,0,0-5.83-6.9V1.17A1.17,1.17,0,0,0,37.33,0h-7a1.16,1.16,0,0,0-1.16,1.17V14.1A7,7,0,0,0,23.33,21V35.38A27.32,27.32,0,0,0,10.5,41V37.23A9.35,9.35,0,0,0,18.67,28V17.48a1.18,1.18,0,0,0-1.17-1.16H1.17A1.17,1.17,0,0,0,0,17.49V28a9.32,9.32,0,0,0,8.17,9.24v5.94h.05c-3,3.19-4.72,6.92-4.72,10.5a10.62,10.62,0,0,0,1.33,5.25,10.46,10.46,0,0,0-3.49,3.32,1.2,1.2,0,0,0-.16.76h0A1.17,1.17,0,0,0,0,64.17,5.83,5.83,0,0,0,5.83,70H64.17A5.83,5.83,0,0,0,70,64.17h0A1.17,1.17,0,0,0,68.83,63ZM50.65,40.47l0,0,5.17-5.18a4.78,4.78,0,0,0,5.68-.73,4.65,4.65,0,0,0-2.1-7.79,4.65,4.65,0,0,0-4.5-3.47,4.6,4.6,0,0,0-3.3,1.37,4.66,4.66,0,0,0-.73,5.67L49,32.27V21a4.69,4.69,0,0,1,4.66-4.67,1.16,1.16,0,0,0,1.17-1.16V2.33H59.5V15.17a1.16,1.16,0,0,0,1.17,1.16A4.68,4.68,0,0,1,65.35,21V38.5H57.18A1.18,1.18,0,0,0,56,39.67V56a1.18,1.18,0,0,0,1.17,1.17h8.17V63H49V61.48a10.54,10.54,0,0,0,3.5-7.81,15.15,15.15,0,0,0-3.82-9.47A11.53,11.53,0,0,0,50.65,40.47Zm2.62-10.82a2.33,2.33,0,0,1,0-3.29h0a2.39,2.39,0,0,1,3.3,0,2.27,2.27,0,0,1,.67,1.53A1.17,1.17,0,0,0,58.35,29a2.36,2.36,0,0,1,1.53.67,2.32,2.32,0,0,1,0,3.28l0,0a2.41,2.41,0,0,1-3.3,0,1.16,1.16,0,0,0-1.64,0l-4.26,4.23s0,0,0,0a5.13,5.13,0,0,0-.33-.76,4.35,4.35,0,0,0-1-1.17l3.94-3.93a1.12,1.12,0,0,0,.33-.83A1.09,1.09,0,0,0,53.27,29.65ZM65.33,40.83v14h-7v-14ZM25.67,21a4.68,4.68,0,0,1,4.66-4.67,1.16,1.16,0,0,0,1.17-1.16V2.33h4.67V15.17a1.16,1.16,0,0,0,1.16,1.16A4.69,4.69,0,0,1,42,21V34.07a23,23,0,0,0-6.12,2A29.21,29.21,0,0,0,28,35c-.79,0-1.56,0-2.33.09ZM2.33,18.67h14v7.45l-.07,0a7.05,7.05,0,0,0-6.81.26,4.7,4.7,0,0,1-4.88,0L2.33,25Zm0,9.33v-.28l1,.62a7.13,7.13,0,0,0,7.3,0,4.72,4.72,0,0,1,4.58-.18l1.07.54a7,7,0,0,1-14-.7ZM6.84,60.65a1.16,1.16,0,0,0,.89-.73,1.18,1.18,0,0,0-.18-1.14,7.9,7.9,0,0,1-1.72-5.09c0-7.56,9.69-16.34,22.17-16.34a26.37,26.37,0,0,1,7.64,1.13,1.21,1.21,0,0,0,.86-.08c5.88-2.93,10.7-2.7,11.82-.8a2.34,2.34,0,0,1,.19.5,1.36,1.36,0,0,1,0,.2c0,.12,0,.24,0,.37v.26a1.49,1.49,0,0,1,0,.36c0,.09,0,.19,0,.3s-.09.3-.13.48,0,.14-.07.22A6.36,6.36,0,0,1,48,41s0,0,0,.05c-.13.26-.28.52-.44.79a.22.22,0,0,1,0,.08c-.18.27-.35.54-.56.82,0,0,0,0,0,0-.22.29-.47.58-.72.89h0a23.51,23.51,0,0,1-5.78,4.63,21.36,21.36,0,0,1-8.66,3c-2.29.19-4-.32-4.58-1.37l-2,1.16c1,1.67,3,2.56,5.69,2.56.35,0,.71,0,1.08,0a23.86,23.86,0,0,0,9.64-3.3,26.87,26.87,0,0,0,5.6-4.29,12.59,12.59,0,0,1,3,7.67c0,5.05-4.31,7.86-8,9.33H4a1.8,1.8,0,0,1-.19-.2A5.67,5.67,0,0,1,6.84,60.65Zm57.33,7H5.83a3.51,3.51,0,0,1-3.3-2.34H67.46A3.5,3.5,0,0,1,64.17,67.67Z"/></svg>