<svg xmlns="http://www.w3.org/2000/svg" viewBox="0 0 50.36 51.2"><defs><style>.a{fill:#f4d475;}</style></defs><title>Asset 57</title><path class="a" d="M46.84,17.69a5.88,5.88,0,1,0-7.23.66,4.2,4.2,0,0,0-1.84,3.47V27.7H34.41V23.5a5.88,5.88,0,0,0-5.18-5.83,5.88,5.88,0,1,0-8.1,0A5.88,5.88,0,0,0,16,23.5v4.2H12.59V21.82a4.2,4.2,0,0,0-1.84-3.47,5.87,5.87,0,1,0-7.23-.66A4.2,4.2,0,0,0,0,21.82V34.41a4.21,4.21,0,0,0,3.36,4.12V51.2H5V38.61h7.55V50.36a.85.85,0,0,0,.84.84h5a.84.84,0,0,0,.83-.84V36.93h5V49.52H21V51.2h8.4V49.52H26V36.93h5V50.36a.84.84,0,0,0,.84.84h5a.85.85,0,0,0,.84-.84V38.61h7.55V51.2H47V38.53a4.21,4.21,0,0,0,3.36-4.12V21.82A4.2,4.2,0,0,0,46.84,17.69Zm-8.23-4.26a4.2,4.2,0,1,1,4.2,4.2A4.21,4.21,0,0,1,38.61,13.43ZM21,13.43a4.2,4.2,0,1,1,4.2,4.2A4.21,4.21,0,0,1,21,13.43Zm5.51,5.87-1.31,3.49L23.87,19.3Zm-8.86,4.2a4.2,4.2,0,0,1,4.19-4.2h.26l2.31,6.17a.84.84,0,0,0,1.58,0l2.31-6.17h.26a4.2,4.2,0,0,1,4.19,4.2v4.2H29.38a.83.83,0,0,0-.84.84V31.9H21.82V28.54A.83.83,0,0,0,21,27.7H17.63ZM3.36,13.43a4.2,4.2,0,1,1,4.19,4.2A4.2,4.2,0,0,1,3.36,13.43ZM17.63,49.52H14.27V37.77a.85.85,0,0,0-.84-.84H4.2a2.52,2.52,0,0,1-2.52-2.52V21.82A2.52,2.52,0,0,1,4.2,19.3H8.39a2.52,2.52,0,0,1,2.52,2.52v6.72a.85.85,0,0,0,.84.84h8.39V31.9H8.39V24.34H6.71v8.39a.84.84,0,0,0,.84.84h7.56a2.52,2.52,0,0,1,2.52,2.52ZM31.15,35.25H19.21a4.2,4.2,0,0,0-.75-1.68H31.9A4.2,4.2,0,0,0,31.15,35.25Zm17.53-.84a2.52,2.52,0,0,1-2.52,2.52H36.93a.85.85,0,0,0-.84.84V49.52H32.73V36.09a2.52,2.52,0,0,1,2.52-2.52h7.56a.84.84,0,0,0,.84-.84V24.34H42V31.9H30.22V29.38h8.39a.85.85,0,0,0,.84-.84V21.82A2.52,2.52,0,0,1,42,19.3h4.19a2.52,2.52,0,0,1,2.52,2.52Z"/><rect class="a" x="24.34" y="27.7" width="1.68" height="1.68"/><path class="a" d="M21,0H9.23a.85.85,0,0,0-.84.84V5a.85.85,0,0,0,.84.84h3.36V7.55a.86.86,0,0,0,.46.76,1,1,0,0,0,.38.08.83.83,0,0,0,.5-.16l3.14-2.35H21A.84.84,0,0,0,21.82,5V.84A.84.84,0,0,0,21,0Zm-.84,4.2H16.79a.93.93,0,0,0-.51.16l-2,1.52V5a.84.84,0,0,0-.84-.84H10.07V1.68H20.14Z"/><rect class="a" x="29.38" y="2.52" width="1.68" height="1.68"/><rect class="a" x="32.73" y="2.52" width="1.68" height="1.68"/><rect class="a" x="36.09" y="2.52" width="1.68" height="1.68"/></svg>