<svg xmlns="http://www.w3.org/2000/svg" viewBox="0 0 60 60"><defs><style>.a{fill:#f4d475;}</style></defs><title>Asset 140</title><path class="a" d="M40.9,12H38.4a5.36,5.36,0,0,0-5.2,4.1L31.7,22H52.3l-1.5-5.9A5.43,5.43,0,0,0,45.6,12H43A13.15,13.15,0,0,0,30,0H23A18.05,18.05,0,0,0,5,18V54H0v6H12V54H7V18A16,16,0,0,1,23,2h7A11,11,0,0,1,40.9,12Zm8,4.6.9,3.4H34.3l.9-3.4A3.42,3.42,0,0,1,38.5,14h7.1A3.51,3.51,0,0,1,48.9,16.6ZM10,56v2H2V56Z"/><path class="a" d="M57.5,27h-3A2.47,2.47,0,0,0,52,29.45V30a6.53,6.53,0,0,0-6,6.5V39H34.1A3.12,3.12,0,0,0,31,42.1V57h2v3h6V57H52v3h6V57h2V29.5A2.47,2.47,0,0,0,57.55,27ZM48,36.6a4.53,4.53,0,0,1,4-4.5v7H48ZM37,58H35V57h2Zm19,0H54V57h2Zm2-3H33V42.1A1.11,1.11,0,0,1,34.1,41H58ZM54,39V29.5a.47.47,0,0,1,.44-.5H57.5a.47.47,0,0,1,.5.44V39Z"/></svg>