<svg xmlns="http://www.w3.org/2000/svg" viewBox="0 0 65 36.455">
  <defs>
    <style>
      .cls-1 {
        fill: #f4d475;
      }
    </style>
  </defs>
  <path id="Clocks_3_" class="cls-1" d="M63.885,12.371a3.521,3.521,0,0,0-2.637-1.318h-1.42V9.937a3.991,3.991,0,0,0-4.158-3.853H53.744V3.853a3.621,3.621,0,0,0-1.217-2.738,4.318,4.318,0,0,0-5.679,0,3.621,3.621,0,0,0-1.217,2.738V14.2H19.267V3.853A3.621,3.621,0,0,0,18.05,1.115a4.318,4.318,0,0,0-5.679,0,3.621,3.621,0,0,0-1.217,2.738V6.084H9.025A4.327,4.327,0,0,0,6.287,7.1,3.414,3.414,0,0,0,5.07,9.734v1.42H3.651a3.521,3.521,0,0,0-2.637,1.318A3.828,3.828,0,0,0,0,15.21v5.983a3.911,3.911,0,0,0,1.014,2.839A3.363,3.363,0,0,0,3.651,25.35H5.07v1.42a3.414,3.414,0,0,0,1.217,2.637,3.828,3.828,0,0,0,2.738,1.014h2.129v2.231a3.621,3.621,0,0,0,1.217,2.738A4.358,4.358,0,0,0,15.211,36.5a4.163,4.163,0,0,0,2.839-1.115,3.621,3.621,0,0,0,1.217-2.738V22.308H45.632V32.651a3.621,3.621,0,0,0,1.217,2.738A4.358,4.358,0,0,0,49.688,36.5a4.163,4.163,0,0,0,2.839-1.115,3.621,3.621,0,0,0,1.217-2.738V30.421h1.927a3.991,3.991,0,0,0,4.158-3.853V25.35h1.521a3.521,3.521,0,0,0,2.637-1.318A4.846,4.846,0,0,0,65,21.193V15.21A4.963,4.963,0,0,0,63.885,12.371ZM3.651,23.322a1.248,1.248,0,0,1-1.014-.507,2.486,2.486,0,0,1-.608-1.622V15.21a2.491,2.491,0,0,1,.507-1.521,1.614,1.614,0,0,1,1.014-.507H5.07v10.14Zm5.374,5.07a1.928,1.928,0,0,1-1.318-.507A1.4,1.4,0,0,1,7.1,26.77V9.734a1.628,1.628,0,0,1,.507-1.115,1.679,1.679,0,0,1,1.318-.507h2.231V28.392Zm8.214,4.158a1.785,1.785,0,0,1-.608,1.318,2.3,2.3,0,0,1-2.941,0,1.635,1.635,0,0,1-.608-1.318V3.853a1.785,1.785,0,0,1,.608-1.318,2.732,2.732,0,0,1,1.521-.507,1.841,1.841,0,0,1,1.42.608,1.446,1.446,0,0,1,.608,1.217v28.7Zm2.028-12.27V16.224H45.632V20.28ZM51.716,32.55a1.785,1.785,0,0,1-.608,1.318,2.3,2.3,0,0,1-2.941,0,1.635,1.635,0,0,1-.608-1.318V3.853a1.785,1.785,0,0,1,.608-1.318,2.732,2.732,0,0,1,1.521-.507,1.841,1.841,0,0,1,1.42.608,1.446,1.446,0,0,1,.608,1.217v28.7ZM57.8,26.466a1.966,1.966,0,0,1-2.129,1.825H53.744V8.112h1.927A1.966,1.966,0,0,1,57.8,9.937V26.466Zm5.07-5.273a2.491,2.491,0,0,1-.507,1.521,1.614,1.614,0,0,1-1.014.507H59.828V13.182h1.521a1.408,1.408,0,0,1,1.014.507,2.491,2.491,0,0,1,.507,1.521Z" transform="translate(0 -0.05)"/>
</svg>
