<svg id="Group_1777" data-name="Group 1777" xmlns="http://www.w3.org/2000/svg" viewBox="0 0 36.861 48.623">
  <defs>
    <style>
      .cls-1 {
        fill: #f4d475;
      }
    </style>
  </defs>
  <path id="Path_704" data-name="Path 704" class="cls-1" d="M34.393,0H2.468A2.465,2.465,0,0,0,0,2.468V46.155a2.465,2.465,0,0,0,2.468,2.468H34.393a2.465,2.465,0,0,0,2.468-2.468V2.468A2.465,2.465,0,0,0,34.393,0ZM1.575,9.977h33.71v33.71H1.575Zm33.71-7.509V8.4H13.337V1.575H34.393A.892.892,0,0,1,35.286,2.468ZM2.468,1.575h9.294V8.4H1.575V2.468A.892.892,0,0,1,2.468,1.575ZM34.393,47.047H2.468a.892.892,0,0,1-.893-.893v-.893h33.71v.893A.892.892,0,0,1,34.393,47.047Z"/>
  <path id="Path_705" data-name="Path 705" class="cls-1" d="M75.709,128a11.709,11.709,0,1,0,11.709,11.709A11.72,11.72,0,0,0,75.709,128Zm0,21.843a10.134,10.134,0,1,1,10.134-10.134A10.147,10.147,0,0,1,75.709,149.843Z" transform="translate(-57.279 -114.558)"/>
  <path id="Path_706" data-name="Path 706" class="cls-1" d="M154.468,28.936A2.468,2.468,0,1,0,152,26.468,2.465,2.465,0,0,0,154.468,28.936Zm0-3.361a.893.893,0,1,1-.893.893A.892.892,0,0,1,154.468,25.575Z" transform="translate(-136.037 -21.48)"/>
  <path id="Path_707" data-name="Path 707" class="cls-1" d="M32.788,57.575h5.041a.788.788,0,1,0,0-1.575H32.788a.788.788,0,1,0,0,1.575Z" transform="translate(-28.639 -50.119)"/>
  <path id="Path_708" data-name="Path 708" class="cls-1" d="M216.788,41.575h2.52a.788.788,0,0,0,0-1.575h-2.52a.788.788,0,1,0,0,1.575Z" transform="translate(-193.316 -35.799)"/>
  <path id="Path_709" data-name="Path 709" class="cls-1" d="M272.788,41.575h2.52a.788.788,0,1,0,0-1.575h-2.52a.788.788,0,1,0,0,1.575Z" transform="translate(-243.435 -35.799)"/>
  <path id="Path_710" data-name="Path 710" class="cls-1" d="M104.349,160a8.349,8.349,0,1,0,8.349,8.349A8.363,8.363,0,0,0,104.349,160Zm0,15.122a6.774,6.774,0,1,1,6.774-6.774A6.777,6.777,0,0,1,104.349,175.122Z" transform="translate(-85.918 -143.197)"/>
</svg>
